<?xml version="1.0" encoding="utf-8"?>
<!-- Generator: Adobe Illustrator 26.3.1, SVG Export Plug-In . SVG Version: 6.00 Build 0)  -->
<svg version="1.1" id="Layer_1" xmlns="http://www.w3.org/2000/svg" xmlns:xlink="http://www.w3.org/1999/xlink" x="0px" y="0px"
	 viewBox="0 0 1400 1400" style="enable-background:new 0 0 1400 1400;" xml:space="preserve">
<style type="text/css">
	.st0{fill-rule:evenodd;clip-rule:evenodd;fill:url(#SVGID_1_);}
	.st1{fill:#310531;}
	.st2{fill-rule:evenodd;clip-rule:evenodd;fill:#FA8E4A;}
	.st3{fill-rule:evenodd;clip-rule:evenodd;fill:#FEC9A8;}
	.st4{fill-rule:evenodd;clip-rule:evenodd;fill:#E96A3E;}
	.st5{fill-rule:evenodd;clip-rule:evenodd;fill:#FFFFCC;}
	.st6{fill-rule:evenodd;clip-rule:evenodd;fill:#784460;}
	.st7{fill-rule:evenodd;clip-rule:evenodd;fill:#8D5D72;}
	.st8{fill-rule:evenodd;clip-rule:evenodd;fill:#6A3D58;}
	.st9{fill-rule:evenodd;clip-rule:evenodd;fill:#B77A84;}
	.st10{fill-rule:evenodd;clip-rule:evenodd;fill:#310531;}
	.st11{fill-rule:evenodd;clip-rule:evenodd;fill:#FFFFFF;}
	.st12{fill-rule:evenodd;clip-rule:evenodd;fill:#C40000;}
	.st13{fill-rule:evenodd;clip-rule:evenodd;fill:#E7840A;}
	.st14{fill-rule:evenodd;clip-rule:evenodd;fill:#F6B000;}
	.st15{fill-rule:evenodd;clip-rule:evenodd;fill:#FFF846;}
	.st16{fill-rule:evenodd;clip-rule:evenodd;fill:#FFB3B2;}
	.st17{fill-rule:evenodd;clip-rule:evenodd;fill:#FFCCCC;}
</style>
<g>
	<radialGradient id="SVGID_1_" cx="696.0182" cy="703.7356" r="593.2805" gradientUnits="userSpaceOnUse">
		<stop  offset="0.3925" style="stop-color:#FFFFFF"/>
		<stop  offset="0.6667" style="stop-color:#FFFFA4"/>
		<stop  offset="1" style="stop-color:#FFA400"/>
	</radialGradient>
	<circle class="st0" cx="696.02" cy="703.74" r="593.28"/>
	<g>
		<path class="st1" d="M697.67,1342.58c-43.38,0-86.74-4.41-128.87-13.1l17.49-84.81c36.39,7.51,73.86,11.31,111.37,11.31
			c302.28,0,548.21-245.93,548.21-548.21S999.96,159.56,697.67,159.56c-302.28,0-548.21,245.93-548.21,548.21
			c0,96.76,25.53,191.85,73.84,274.99l-74.87,43.51C92.45,929.93,62.87,819.8,62.87,707.77c0-350.03,284.77-634.81,634.8-634.81
			c350.03,0,634.81,284.77,634.81,634.81C1332.48,1057.8,1047.7,1342.58,697.67,1342.58z"/>
	</g>
	<g>
		<path class="st2" d="M222.13,877.01l380.16,271.22l125.02-47.5c92.74-9.15,196.44,73.9,246.89,44.89
			c49.96-29.11-8.57-104.23,20.7-114.55c41.04-7.46,20.62-46.91-1.91-55.03c35.48,7.57,47.15,0.52,68.53-19.17
			c-15.71-8.85-35.36-23.68-22.57-49.25c29.67-14.92,91.92,13.06,114.61-28.75c0,0-67.72-80.59-68.07-115.01
			c9.66-53.77,46.22-49.11,43.9-86.52c-4.19-46.11,12.88-98.41,4.73-150.51c-5.1-31.2-28.88-66.63-45.46-89.18
			c-93.07-126.22-302.59-242.8-474.84-210.93c-178.08,32.8-258.38,214.61-266.74,261.87c-8.46,47.76-0.26,130.58,17.19,169.43
			c17.45,38.86,33.73,62.91,12.82,106.12C356.76,806.95,222.13,877.01,222.13,877.01z"/>
		<path class="st3" d="M1086.74,434.41c-3.27-4.25-64.4-58.51-117.37-65.96c42.23,30.48,79.34,73.81,96.87,109.65
			c27.54,55.3,11.68,91.19-65.96,39.81c0,0,45.91,48.16,52.55,63.86c10.31,25.68,8.17,54.53,22.03,75.26
			c35.24,52.72-14.89,28.38,8.38,68.96c0,0,13.53-6.04,30.01-19.21c16.88-12.57,22.79-31.94,22.79-31.94s-14.4-59.36-5.94-83.88
			c8.96-24.42,17.92-48.83-6.25-100.38C1099.68,439.04,1089.91,439.15,1086.74,434.41z"/>
		<path class="st3" d="M986.85,831.15c0.08-13.34,8.52-60.98-15.33-90.88c-23.36-29.81-52.92-41.34-52.92-41.34s4.21,40.9,29.04,71
			c24.83,30.11,25.72,108.36,25.72,108.36S986.17,844.89,986.85,831.15z"/>
		<path class="st3" d="M1104.07,856.49c-3.17-7.31-24.24-27.93-42.55-49.55c-2.57-2.56-4.65-5.03-6.63-7.99l15.12-76.1
			c12.23-15.03,30.2-25.34,48.17-38.2c0,0-42.89,73.67-23.18,106.35c19.7,32.68,55.72,76.31,55.72,76.31
			C1138.57,876.71,1110.5,870.62,1104.07,856.49L1104.07,856.49z M994.11,1104.84l3.44-17.3
			C998.84,1096.53,997.76,1101.97,994.11,1104.84L994.11,1104.84z M1027.1,938.8l6.38-32.12c0.99,0.2,1.48,0.29,1.48,0.29
			s-6.51,6.92,0.72,22.23c7.33,14.81,18.9,18.65,18.9,18.65l-10.87-2.16C1043.71,945.69,1036.59,942.74,1027.1,938.8L1027.1,938.8z
			 M1043.2,857.76c18.28-1.51,43.17-7.86,13.71-17.31c-1.88-0.89-5.93-1.18-10.08-0.98L1043.2,857.76z M1054.89,798.95
			c-14.94-17.86-26.33-35.54-23.28-45.71c1.37-6.92,27.35-13.58,30.41-18.62c2.36-4.15,4.63-7.81,7.99-11.77L1054.89,798.95
			L1054.89,798.95z M1046.83,839.47l-3.63,18.29c-4.64,0.1-8.79,0.3-11.76-0.29c-15.52-2.06-13.65-11.44-8.32-15
			C1026.68,840.09,1037.65,839.19,1046.83,839.47L1046.83,839.47z M1033.48,906.68l-6.38,32.12c-14.14-6.4-33.32-15.87-42.91-24.45
			c-6.14-5.33-10.51-32.39-0.44-33.99c9.58-1.69,19.48,10.55,30.85,17.94C1021.32,903.24,1030.12,905.5,1033.48,906.68
			L1033.48,906.68z M997.55,1087.54l-3.44,17.3c-4.74,3.17-14.03,0.8-25.9-6.69c-25.02-16.27-25.77-64.19-21.75-84.45
			c3.93-19.77,25.31,14.79,25.31,14.79s9.5,9.08,21.59,43.84C995.36,1077.86,996.85,1083.3,997.55,1087.54L997.55,1087.54z
			 M937.69,946.72l0.1-0.49c0.1-0.5,0.69-0.89,2.28-1.09c7.41-1.1,37.85,8.55,55.36,28.98c18.01,20.53,11.89,25.48,11.89,25.48
			s-17.9-18.45-42.13-33.54C946.99,954.22,937.79,948.79,937.69,946.72z"/>
		<path class="st4" d="M1038.87,949.36c0,0-43.48-6.08-65.82-17.71l-5.5,27.68c4.15,2.37,7.91,4.14,11.57,6.41
			c18.29,11.34,36.39,23.67,36.39,23.67l-2.29-14.33c0,0,14.81-4.76,35.05-16.15c20.24-11.39,20.24-11.39,20.24-11.39
			L1038.87,949.36L1038.87,949.36z M958.22,1006.27l5.11-25.7c16.12,11.93,34.32,28.9,31.96,33.06
			c-3.16,5.54-11.85,10.49-11.85,10.49l-13.45-7.29C969.98,1016.83,964.75,1012.19,958.22,1006.27z M973.04,931.65
			c-0.99-0.2-1.39-0.79-2.37-0.98c-21.75-12.03-31.34-15.48-31.34-15.48l4.34-8.9c0,0-27.36,8.43-30.01,21.78
			c-2.75,13.83,12.07,16.77,12.07,16.77s23.42,6.2,41.82,14.47L973.04,931.65L973.04,931.65z M963.32,980.58l-5.11,25.7
			c-9.1-8.49-21.37-19.14-27.6-23.97c-11.17-8.39-1.6-17.79,13.82-12.67C948.78,971.01,956.1,975.55,963.32,980.58z"/>
		<path class="st4" d="M1142.43,875.42c0,0-19.65,10.99-41.99,1.93c-21.75-9.46-33.62-16.95-50.52-17.23
			c-16.9-0.27-31.51,3.5-36.55,5.58c-5.43,1.49-10.28-2.56-12.35,0.11c-1.58,2.77,4.97,21.53,17.23,27.05
			c11.76,5.42,21.04,2.64,38.34,3.51c16.8,0.77,68.97-0.68,76.08-5.43C1139.68,886.69,1142.43,875.42,1142.43,875.42z"/>
		<path class="st4" d="M918.8,1015.91c-6.14-7.9-12.26-10.66-19.58-12.63c-6.44-11.55-19.81-37.32-17.97-72.4
			c3.1-46.64,13.66-60.98,13.66-60.98s-17.49,7.83-24.95,45.38c-5.6,28.17-6.25,57.32-3.06,77.47l-0.99-0.2
			c-6.72-4.93-20.08-15.29-36.49-28.31c-3.77-14.62-7.75-33.39-8.96-53.15c-0.82-19.17,15.86-35.89,14.45-57.23
			c19.84-14.55,35.63-26.82,32.77-25.33l-33.37,18.02l-0.51-10.38l6.81-5.83c32.87-30.97,41.84-42.54,41.83-57.96
			c-0.61-15.01-24.03-91.07-24.03-91.07s-5.04,2.08-12.34,5.25c0.97-12.65,3.82-24.41,11.52-34.69
			c-0.08,15.9,16.83,23.89,58.22,22.35c42.98-1.73,124.98-8.55,128.69,37.39c8.03,19.06,61.23-23.79,61.23-23.79
			s-16.8-0.77-27.88-14.78c-10.59-13.92-40.1-67.05-79.34-76.38c-13.25-3.15-31.92-2.23-51.18,1.65
			c18.75-16.82,36.81-35.32,35.23-37.69c-17.22-19.35-47.32-64.37-31.21-62.7c15.61,1.56,56.22,1.41,53.32-25.36
			c-2.4-26.68-62.65-85.39-62.65-85.39s-49.05-37.49-73.93-18.29c-25.47,19.59,6.46,32.11,12.24,67.67
			c6.37,35.17-81.15,56.82-108.78,82.15c-23.29,21.57-35.84,102.8-36.36,154.58c-7.61-0.49-23.61-2.64-38.16-17.34
			c-20.28-19.44-28.05,11.89-28.05,11.89s-28.59,50.82-23.8,83.62c4.29,32.7,42.05,46.89,40.98,62.59
			c-2.59,59.58-7.04,53.56-32.22,66.54c-25.18,12.97,153.44,148.12,179.45,169.72c39.67,33.05,101.29,87.42,102.4,27.54
			C936.06,1063.51,932.86,1035.65,918.8,1015.91z"/>
		<path class="st4" d="M633.8,746.62c0,0-32.72,141.43-6.1,175.49c18.31,24.18,141.52,99.51,206,147.25
			c27.4,19.83,34.94,41.36,34.94,41.36s-94.98-15.79-129.38-31.36c-71.87-33.8-121.66-106.36-140.59-142.99
			C568.26,877.43,606.77,856.83,633.8,746.62L633.8,746.62z M560.97,740.88c0,0-28.54,14.36-52.94,18.24
			c-24.3,3.39-38.41,22.68-58.24,47.5c-20.32,24.73-24.06,35.8-24.06,35.8s-60.57-2.79-75.89-10.97
			c-7.42-4.04,20.63-15.93,38.88-35.42c18.65-18.9,26.92-44.99,44.98-63.49c12.83-12.86,51.53-37.02,70.69-40.4
			C523.95,689.35,560.97,740.88,560.97,740.88z"/>
		<path class="st5" d="M1081.57,726.69c-6.71,5.34-26.16,23.05-26.64,35.8c-0.48,12.74,13.68,34.56,23.47,44.73
			c10.29,10.26,53.82,49.73,53.82,49.73s-39.17-32.95-42.68-77.32c-3.02-44.26,10.21-53.96,10.21-53.96
			S1088.19,721.84,1081.57,726.69L1081.57,726.69z M950.16,731.4l0.69-3.46l0,0c4.14-7.91,28.39,25.16,30.19,44.52
			c2.39,18.96-0.34,48.22-0.34,48.22s-3.3-35.07-9.94-45.63C964.83,766.16,950.08,742.17,950.16,731.4L950.16,731.4z
			 M1033.62,937.01c0,0-15.12-6.6-22.75-17.36c-7.62-10.76,10.26-15.42,16.39-10.1c6.13,5.32,23.26,35.44,23.26,35.44
			L1033.62,937.01z"/>
		<path class="st5" d="M1087.28,473.04c6.43,8.99,25.05,41.97,14.62,78.93c-9.93,37.07-9.73,38.65-9.73,38.65l-19.38-8.47
			c0,0,9.81,20.44,10.72,36.54c1.4,16.2,1.42,26.48,15.26,36.93c13.75,10.95,26.21,20.62,26.6,10.93
			c0.28-9.19-2.46-67.78-2.46-67.78s12.08-60.78-6.75-100.48c-18.72-40.19-58.78-71.26-58.78-71.26S1081.44,463.66,1087.28,473.04z"
			/>
		<path class="st3" d="M388.47,753.35c0,0,11.95-5.84,10.19,10.76c-1.75,16.6-32.06,42.43-32.06,42.43l-21.35-8.87L388.47,753.35z"
			/>
		<path class="st3" d="M463.19,847.81c0,0,38.48-43.72,63.65-66.97c25.07-22.76,71.21-24.89,80.89-29.64
			c9.68-4.75,2.4,24.11-38.37,56.07c-40.67,31.47-18.12,129.95-18.12,129.95l-94.07-84.96L463.19,847.81z"/>
		<path class="st5" d="M977.32,1029.07l-18.1-12.33c-14.04-9.47,19.98,95.92,28.52,52.92
			C991.86,1048.91,977.32,1029.07,977.32,1029.07z"/>
		<path class="st6" d="M1098.75,792.77c-7.13-13.23-12.29-26.07-12.1-34.76c9.52-53.07,46.08-48.38,43.66-85.33
			c-0.3-1.09-0.1-2.07-0.4-3.17c-7.22-2.46-28.96-11.92-50.54-37.78c-16.72-19.25-48.97-48.26-87.52-63.62l-23.27,117.12
			c16.5,2.25,33.61,9.24,50.42,28c-1.19,0.79-0.39,1.97-2.36,4.15c-11.35,10.58-12.42,26.3-31.09,27.21
			c2.37,6.12,5.05,8.2-0.58,10.67c-5.55-16-12.88-28.25-22.57-38.9l-18.36,92.41c0.99,0.2,1.97,0.39,2.86,1.09
			c31.33,7.76,55.51-15.68,72.5-18.47C1029.58,789.3,1068.31,790.83,1098.75,792.77z M991.85,568.12
			c-24.22-9.95-50.02-14.56-76-7.91c-67.36,15.89-90.01,80.74-90.01,80.74s-5.48,43.09,16.6,81.89
			c21.2,38.11,70.05,76.59,101.58,85.93l18.36-92.41c-13.06-14.41-29.28-25.85-48.86-38.47c17.89,5.61,36.17,4.1,55.05,7.34
			L991.85,568.12z"/>
		<path class="st7" d="M1060.98,613.18c2.98,16.01,5.57,31.42,13.89,43.85c35.24,52.72-14.89,28.38,8.38,68.96
			c0,0,13.53-6.04,30.01-19.21c14.42-10.49,20.62-26.21,22-30.57c-1.88-3.45-2.97-5.72-2.97-5.72s-26.39-6.78-52.91-38.76
			C1074.33,626.11,1068.39,619.8,1060.98,613.18z"/>
		<path class="st7" d="M988.49,804.76c0.19-11.27-0.22-24.7-3.9-37.24L984.3,769c-2.08-7.6-4.66-15.31-7.93-22.12
			c-1.58-2.37-3.17-4.74-4.85-6.61c-23.36-29.81-52.92-41.34-52.92-41.34s4.21,40.9,29.04,71c8.31,9.87,14.06,24.88,17.54,40.98
			C973.58,810.02,981.28,807.44,988.49,804.76z"/>
		<path class="st7" d="M1047.86,790.37c-10.98-14.51-18.51-28.34-16.25-37.13c1.37-6.92,27.35-13.58,30.41-18.62
			c12.12-22.25,34.54-34.23,56.16-49.97c0,0-42.89,73.67-23.18,106.35l0.69,1.68C1079.97,791.61,1062.68,790.74,1047.86,790.37z"/>
		<path class="st8" d="M882.33,770.32c-1.9-18.87-23.92-88.99-23.92-88.99s-5.04,2.08-12.34,5.25c0.97-12.65,3.82-24.41,11.52-34.69
			c-0.08,15.9,16.83,23.89,58.22,22.35c42.98-1.73,124.98-8.55,128.69,37.39c8.03,19.06,61.23-23.79,61.23-23.79
			s-16.8-0.77-27.88-14.78c-10.59-13.92-40.1-67.05-79.34-76.38c-13.25-3.15-31.92-2.23-51.18,1.65
			c14.41-13.07,29.11-27.61,34.05-34.33c-21.25-6.79-43.39-9.14-65.52-3.77c-67.36,15.89-90.01,80.74-90.01,80.74
			s-5.48,43.09,16.6,81.89C851.47,739.53,866.11,756.31,882.33,770.32z"/>
		<path class="st9" d="M1081.57,726.69c-6.71,5.34-26.16,23.05-26.64,35.8c-0.49,7.61,4.96,18.96,11.3,28.44
			c8.1,0.58,16.8,0.77,25.4,1.46c-0.7-4.25-1.4-8.5-2.09-12.75c-3.02-44.26,10.21-53.96,10.21-53.96S1088.19,721.84,1081.57,726.69
			L1081.57,726.69z M950.16,731.4l0.69-3.46l0,0c4.14-7.91,28.39,25.16,30.19,44.52c1.49,10.57,1.22,24.9,0.24,34.98l-2.17,0.6
			c-1.4-11.07-3.99-26.48-8.34-32.99C964.83,766.16,950.08,742.17,950.16,731.4z"/>
		<path class="st9" d="M1086.89,640.42c1.98,5.53,5.15,10.27,11.88,15.2c13.35,10.36,25.32,19.93,26.4,11.93
			C1117.07,664.4,1102.23,656.31,1086.89,640.42z"/>
		<g>
			<path class="st1" d="M607.65,1167.78c122.15-61.52,120.04-87.11,253.69-38.46c47.95,17.23,90.06,32.79,120.67,15.76
				c36.04-21.09,27.79-57.15,21.33-86.68l0,0c-0.2-1.58-0.4-3.16-1.19-4.35c-6.86-32.7,5.42-14.34,22.68-34.02
				c4.83-6.23,7.29-13.45,7.19-20.66l-0.5-0.1c0.19-6.12-1.69-12.15-4.67-17.88c23.12-2.6,39.4-19.91,56.28-35.05
				c-10.68-5.72-25.41-11.73-32.04-22.29l-0.5-0.1c-3.17-7.31-1.79-11.66,1.76-14.03c9.58-6.83,20.65-0.52,31.23,0.55
				c28.46,1.54,47.43,1.71,85.61-40.52c-30.07-32.17-95.37-99.09-57.59-144.49c16.38-20.38,31.98-31.66,29.96-60.31l0.1-0.5
				c-4.8-50.78,4.86-68.38,3.72-114.33c-1.27-66-49.47-131.05-94.29-174.37c-150.17-146.44-408.77-238.4-586.34-91.85
				c-64.06,53.54-127.58,140.57-131.22,228.71c-3.47,69.17,62.08,181.33,34.78,238.58c-18.52,38.95-149.36,105.42-149.96,105.81
				l-15.55,47.25c0.1-0.49,91.24-50.7,147.4-95.53c22.6-18.11,32.96-34.04,39.27-47.67c30.85-64.76-36.38-173.66-33.01-247.47
				c3.94-81.92,63.52-162.03,123.14-211.3c167.9-139.24,413.75-47.76,555.41,89.81c39.57,38.68,85.78,93.06,87.04,151.36
				c0.75,45.35-13.95,59.9-3.89,123.02c1.31,19.26-10.33,33.9-23.95,50.72c-44.69,54.3,8.04,112.04,45.75,154.97
				c-12.83,15.43-39.4,17.34-63.41,16.68c-26.58-0.66-49.61-3.69-51.94,28.72c-0.39,7.11,2.98,13.43,7.04,18.87l0,0
				c3.07,5.23,7.33,9.67,11.77,13.12c-14.51,10.99-28.64,9.72-46.33,5.69L962,948.47c10.48,4.13,45.99,34.82,46.8,51.42l-0.49-0.1
				c0.1,2.07-0.2,3.56-1.48,4.84c-12.14,14.54-34.49,0.34-29.99,37.19c0.7,6.82,2.29,14.32,3.88,21.83l0,0
				c4.87,22.03,10.83,48.9-10.6,61.08c-20.83,11.79-58.2-1.8-100.8-17.45c-36.08-7.17-70.68-24.32-115.04-23.38
				c-43.77,0.55-94.04,18.3-143.69,58.78L607.65,1167.78z"/>
		</g>
		<path class="st10" d="M1124.77,666.95c-8.38,16.31-23.96,37.87-45.51,30c-9.59-3.45-58.78-71.27-83.69-80.33
			c-24.82-9.55-89.62,1.2-89.62,1.2s50.13-48.09,96.78-42.41c33.5,4.6,71.31,52.18,95.55,77.54
			C1108.17,662.63,1124.77,666.95,1124.77,666.95z"/>
		<path class="st11" d="M981.6,748.95c18.86-12.18,33.05-39.66,28.7-43.61c-26.32-25.27-76.01-20.75-86.79-23.41
			C946.76,701.96,969.42,727.52,981.6,748.95z"/>
		<path class="st12" d="M1012.18,706.23c-8.61-5.82-18.87-0.67-25.78,8.23c-2.07,2.67-6.41,6.43-7.69,12.86
			c-1.97,7.31,0.02,17.98,5.26,17.48C1013.71,739.92,1016.44,715.81,1012.18,706.23z"/>
		<path class="st1" d="M1071.79,881.93l-4.45-3.45l0,0c-15.44-15.39-44.77-4.79-57.6,8.08c-20.58-23.09-17.64-40.49-6.88-48.11
			c12.63-9.31,40.21-0.75,57.99-10.06c-3.12,28.66-74.9-3.06-49.84,41.47C1022.26,862.33,1072.64,851.79,1071.79,881.93z"/>
		<path class="st1" d="M1010.35,976.57c-29.27-18.14-53.88-26.12-83.15-44.26c8.99-1.29,37.46,10.52,43.59,13.28
			c13.64,6.31,29.76,13.11,55.95,18.31C1023.09,971.91,1014,968.56,1010.35,976.57z"/>
		<path class="st10" d="M1008.64,718.87c-7.82-4.63-17.68,6.25-17.08,16.13c1.39,0.79,1.29,3.85,2.87,3.65
			C1009.26,736.47,1010.72,723.92,1008.64,718.87z"/>
		<path class="st1" d="M1011.16,677.77c-32.12-8.95-69.77-10.78-94.66-4.43c52.76-1.85,117.01,16.06,129,41.04
			C1050.59,686.12,1038.84,685.84,1011.16,677.77z"/>
		<path class="st1" d="M631.83,753.94c-0.1,0.49-50.53,127.62-20.35,164.44c28.9,35.53,248.53,173.69,248.92,174.28
			c-67.18-67.8-168.22-115.1-227.79-187.55C602.53,867.8,639.11,800.07,631.83,753.94z"/>
		<path class="st13" d="M891.8,365.89c-50.26,25.46,22.57,108.76-3.58,144.65c-26.14,35.9-105.7,14.96-130.83,69.04
			c-25.13,54.08-26.93,112.27-26.93,112.27c-29.64-0.75-46.27-17.92-57.46-41.72c0,0,6.59-97.83-30.5-128.32
			c-37.09-30.48-67.84-51.49-101.22-33.47c-32.98,18.62-56.06,46.91-57.69,91.28c-1.53,43.87,40.97,127.31,40.97,127.31
			c-46.31,23.67-84.92,39.63-135.62,31.1c-0.23-24.7-26-88.89-59.51-98.63c0,0-4.43-143.17,17.53-201.99
			c21.96-58.82,131.77-184.93,194.88-210.41c86.7-35.68,211.32-24.27,304.73,1.99c90.93,25.77,194.84,76.72,237.42,146.82
			c13.86,23.3,6.36,30.03,8.88,63.92C1053.98,395.03,950.06,336.37,891.8,365.89z"/>
		<path class="st14" d="M891.8,365.89c-50.26,25.46,22.57,108.76-3.58,144.65c-2.76,3.56-6.01,7.03-9.57,9.4
			c-22.06-20.82-67.99-6.83-88.02,8.71c-1.78,1.19-3.56,2.38-4.84,3.67c-14.04-4.33-29.55-8.96-45.76-12.69l47.23-237.69
			c31.83,13,76.02,31.03,92.93,44.15c14.74,11.15,23.14,17.95,27.5,21.9C912.94,365.46,906.71,358.06,891.8,365.89L891.8,365.89z
			 M800.02,217.69l-10.8,54.36c66.71,13.25,119.2,28.31,162.35,87.73c53.57,9.62,113.69,48.27,141.3,79.95
			c-2.51-33.89,4.99-40.61-8.88-63.92c-42.57-70.1-146.48-121.05-237.42-146.82C831.45,224.96,816.23,221.43,800.02,217.69
			L800.02,217.69z M707.63,682.7l14.73-74.12c6.92,3.94,13.34,7.79,20.27,11.73c-11.32,38.85-12.16,71.55-12.16,71.55
			c-6.62-0.28-12.55-1.46-17.89-3.03C712.18,688.22,710.1,685.76,707.63,682.7L707.63,682.7z M724.81,596.22l2.36-11.86
			c7.91,4.14,15.33,8.18,23.13,12.82c-1.19,3.36-2.85,6.63-3.44,9.59C739.84,603.31,732.32,599.76,724.81,596.22L724.81,596.22z
			 M729.72,571.51l2.65-13.34c9.39,4.44,18.39,8.28,27.19,13.11c-1.77,3.76-2.66,8.21-3.94,12.06
			C747.71,579.2,738.72,575.35,729.72,571.51L729.72,571.51z M734.93,545.32l2.85-14.33c12.45,4.53,24.42,8.96,36.37,13.39
			c-2.86,4.06-5.82,8.6-8.18,12.76C756.48,553.2,745.9,549.56,734.93,545.32z M740.03,519.63c-14.63-3.94-29.36-7.38-43.59-10.72
			c-22.09-43.94-46.22-59.52-112.93-72.78c-68.19-13.55,1.96-17.59,1.96-17.59s-5.75-9.88-48.22-0.34
			c-42.47,9.54-65.38,18.86-65.38,18.86s35.62-37.1,79.49-43.27c43.46-6.78,45.15-7.47,45.15-7.47s-33.32-15.87-80.53,1.98
			c-47.2,17.84-51.54,24.17-51.54,24.17s8.36-26.59,52.61-45.02c44.74-18.34,58.47-20.23,58.47-20.23
			c-91.1-1.67-128.01,36.72-192.76,88.58c0,0,12.91-26.2,25.64-38.57c13.32-12.76,24.48-22.36,24.48-22.36
			c-79.21,26.39-93.07,158.21-103.56,226.5c-0.04-35.97,1.47-90.12,9.12-131.23l1.87-9.39c1.77-8.9,4.32-16.61,6.69-23.33
			c27.08-71.67,74.07-106.51,136.97-141.27c-7,9.39-14.5,18.69-21.51,28.09c-7,9.4,63.16-61.93,103.58-50.82
			c-1.67,5.83-66.56,24.79-46.49,32.37c6.23,2.26,129.27-53.42,169.9-38.16c20.73-11.29-80.88-40.21-187.26-16.66
			c14.51-10.99,27.93-19.1,39.69-23.96c73.17-29.64,173.27-26.7,258.17-9.31l-10.8,54.36c-6.92-1.37-13.84-2.75-21.25-4.22
			c-31.14-6.19-11.66,1.79,19.28,14.1L740.03,519.63L740.03,519.63z M737.77,530.99c-12.06-3.94-24.22-7.38-36.87-10.92
			c1.68,4.45,2.68,9.78,3.18,15.02c10.58,3.64,20.76,6.69,30.84,10.24L737.77,530.99L737.77,530.99z M732.37,558.17
			c-9-3.84-17.99-7.68-27.58-11.13c0.1,4.64,0.21,9.29-0.18,13.83c8.5,3.74,17.1,6.99,25.11,10.64L732.37,558.17L732.37,558.17z
			 M727.17,584.36c-7.42-4.04-15.33-8.18-23.34-11.82c-0.29,4.05-1.17,8.5-1.47,12.55c7.52,3.55,15.03,7.1,22.45,11.14
			L727.17,584.36L727.17,584.36z M722.36,608.57c-6.83-4.44-14.24-8.48-21.66-12.52l-1.37,6.92c-6.58,35.68-7.24,59.69-7.24,59.69
			c0.69,1.68,9.8,12.74,15.54,20.04L722.36,608.57z"/>
		<path class="st14" d="M390.48,704.44l-5.04,2.08c0,0,2.18,4.54,45.63-9.94c43.36-13.99,52.74-22.4,52.74-22.4
			s-11.54,19.28-48.67,35.53c-37.13,16.25-52.16,9.16-52.16,9.16s0.48-12.75-9.23-33.68c-9.31-20.34-36.91-41.75-36.91-41.75
			l36.02-33.94l-11.73,25.4l46.8-26.14l-45.19,49.06l4.45,6.02l76.91-50.98l-70.77,61.45l90.27-30.35l-83.53,48.12L468,671.04
			c0,0-86.31,33.7-81.97,32.51C389.89,702.27,390.48,704.44,390.48,704.44z"/>
		<path class="st1" d="M578.63,483.96c-27.28-10.04-54.36-10.8-78.66-4.84l-2.75,13.83C521.62,483.93,549.08,480.14,578.63,483.96
			L578.63,483.96z M502.72,465.28l2.75-13.84c26.47-6.55,55.22-6.49,83.5,3.75C559.02,450.78,529.39,455.17,502.72,465.28z
			 M499.98,479.12c-61.54,15-106.13,71.38-100.04,120.87c5.09-41.11,42.97-87.01,97.29-107.04L499.98,479.12L499.98,479.12z
			 M505.47,451.44l-2.75,13.84c-59.26,21.62-104.84,70.08-109.93,111.2c-0.8-6.32-0.61-12.45,0.67-18.88l1.18-5.93
			C404.66,508.98,450.26,465.65,505.47,451.44z"/>
		<path class="st1" d="M886.65,355.62c-37.03,18.32-25.32,55.07-13.62,91.81c6.85,22.42,14.19,44.94,5.8,56.12
			c-9.17,12.56-28.54,16.93-49.47,21.5c-83.27,18.39-101.97,73.74-109.68,153.89c-16.7-3.83-27.59-16.27-34.82-31.58
			c1.82-45.35-1.42-106.61-39.8-138.38c27.83,48.68,31.65,104.4,16.28,140.38c15.65,29.82,47.69,52.11,80.1,54.44
			c2.3-60.67,16.31-151.89,87.24-167.59c25.28-5.76,54.84,0.63,68.94-18.66c14.89-20.67,6.06-48.62-2.66-77.07
			c-8.44-27.36-24.68-61.92-5.23-71.92c61.71-31.4,167.04,43.46,208.6,90.25l6.1-20.36c-1-10.47-0.42-18.58-0.23-24.7l0,0
			c2.86-81.62-112.72-141.05-174.71-167.75c-13.25-5.71-26.59-10.93-40.13-15.16c-13.45-4.73-26.49-8.86-39.55-13l-0.49-0.1
			c-67.6-19.08-152.7-30.34-227.88-21.65c-15.21,1.6-29.54,3.89-43.56,7.27c-14.03,3.38-27.17,7.45-40.01,12.6l0,0l-0.59,0.4l0,0
			c-74.86,30.33-171.26,138.05-201.3,216.84l0,0l0,0c-23.93,63.56-19.57,147.64-17.51,214.83c41.22,12.3,68.44,56.24,58.72,100.02
			c57.51,5.26,96.73-3.38,146.69-27.36c2.64-21.05,19.02-38.85-14.75-18.85c-35.25,17.14-69.82,30.82-109.44,26.03
			c-5.48-34.47-26.78-79.8-58.42-96.37c-0.73-29.93-1.76-141.09,16.66-189.82l0,0l0.1-0.5c28.26-75.03,119.53-175.04,187.87-203.59
			l-0.1,0.5l0.6-0.4l0,0c11.75-4.85,24.29-8.53,37.24-11.6c12.94-3.08,26.27-5.56,40.4-6.87c72.02-8.29,153.55,2.77,219.28,20.97
			l0.39,0.59c12.65,3.54,25.21,7.58,38.25,11.71c12.95,4.63,25.8,9.75,38.16,14.78c36.88,16.06,130.12,66.43,161.63,143.07
			C1036.07,371.43,945.5,325.7,886.65,355.62z"/>
		<path class="st1" d="M873.69,966.37c-24.65-33.66-3.75-74.2,23.19-98.64c-16.08,18.89-29.27,59.42-24.8,80.85L873.69,966.37z"/>
		<path class="st2" d="M667.38,575.05c0,0-28.76-87.91-81.24-92.68c-22.63-2.44-44.56,4.51-61.53,17.57
			c-21.82,16.72-36.21,42.63-43.98,68.82c-13.97,47.05,28.64,145.41,67.88,159.88c19.08,7.39,39.63,7.36,54.85,5.76
			c33.69-4.09,49.95-31.68,58.51-64.4C670.32,637.79,670.67,599.85,667.38,575.05z"/>
		<path class="st3" d="M538.74,503.77c-12.73,9.8-41.45,40.56-40.4,89.57c1.05,49.01,23.73,87.42,37.76,94.32
			c13.45,7.29,40.73,17.33,27.41,30.1c-13.32,12.76-54.55-7.24-75.37-67.88c-20.34-60.54-5.58-116.69,30.54-143.41
			c36.03-26.23,58.17-23.88,58.17-23.88S551.97,494.07,538.74,503.77z"/>
		<path class="st1" d="M664.02,654c-2.52-39.03-4.48-106.71-30.21-137.5c-20.29-24.58-51.04-37.88-86.48-22.32
			c-29.82,13.08-51.43,44.23-61.37,76.16l-0.1,0.5l0,0c-12,42.31,15.15,109.86,45.03,137.88c25.53,24.08,64.26,25.61,96.75,14.6
			c-35.72,37.59-81.28,31.62-114.05-15.47c-23.95-34.55-51.3-95.98-38.91-140.26l0,0l0.1-0.49c10.53-34.89,34.79-69.11,67.97-83.58
			c50.66-22.3,107.92,12.71,123.88,61.6C677.26,577.01,680,635.6,664.02,654z"/>
		<path class="st4" d="M597.38,622.27c-6.91,8.9,12.76,10.75,20.86,13.91c0,0-21.34,1.41-25.47,17.02
			c-1.57,7.91,6.54,16.2,8.33,22.71c1.88,6.02-2.46,9.78-7.99,11.77c-17.28,6.84-47.56-29.49-53.9-41.53
			c-10.89-20.14-20.01-44.05-13.51-53.54c0,0-13.77-34.07,10.3-59.6C588.01,478.12,661.26,585.13,597.38,622.27z"/>
		<path class="st1" d="M592.7,671.68c6.14,10.46,0.91,13.53-7.69,10.28c-11.86-4.93-30.66-21.5-33.92-25.75
			c3.56,5.34,12.29,28.64,25.34,37.92c13.55,9.37,31.43,4.7,30.91-15.95l0,0c-0.2-1.58,0-2.56-0.7-4.25l0,0l0,0l0,0
			c-0.99-2.77-2.08-5.04-4.06-8c-7.23-12.74-0.72-24.8,15.58-24.12C591.95,623.76,580.82,651.34,592.7,671.68z"/>
		<path class="st1" d="M594.31,617.03c27.76-5.27,37.92-20.2,32.74-48.45c-2.28-11.75-7.34-22.52-14.26-31.6l0,0
			c-7.32-9.68-16.13-17.08-26.12-21.11c-62.97-26.89-86.18,58.9-58.85,102.34c-12.59-32.3,4.5-113.14,54.23-91.96
			c8.01,3.65,15.53,9.76,21.17,17.56l0,0c6.14,7.9,10.5,16.98,12.18,26.57c0.6,2.17,0.7,4.25,0.7,6.82
			c-11.77-7.99-23.23-9.75-34-7.27c-25.79,3.1-52.5,52.24-23.32,73.45c-14.85-20.93,1.51-56.72,26.2-62.09
			C617.28,573.83,621.07,601.29,594.31,617.03z"/>
		<path class="st10" d="M935.1,933.88c0,0-1.89-8.59,2.65-13.34c4.54-4.75,12.92-15.93,12.92-15.93s-18.76,9.12-24.48,17.23
			c-5.72,8.11-10.73,33.31-10.73,33.31s5.41-14.33,10.65-17.4C930.96,934.08,935.1,933.88,935.1,933.88z"/>
		<path class="st15" d="M783.49,350.02c18,10.25,28.18,18.44,28.18,18.44s-12.16-6.01-29.16-13.5l-4.32,21.74
			c52.8,28.99,100.75,51.35,71.86,18.39c-12.87-15.4-32.74-26.54-18.41-21.12c12.95,4.63,20.06,2.45,23.22,2.05
			c2.07-0.1-2.81-29.84-66.66-49.71L783.49,350.02L783.49,350.02z M758.26,477.01l2.75-13.84c25.8,7.19,69.19,21.46,64.56,29.26
			C822.7,496.49,788.01,487.55,758.26,477.01L758.26,477.01z M763.16,452.31c41.12,15.36,81.85,30.13,84.91,25.09
			c4.63-7.81-54.18-29.77-82.26-38.43L763.16,452.31L763.16,452.31z M767.78,429.08l2.55-12.85c34.7,14.09,91.65,40.29,85.73,49.4
			c-2.17,3.16-20.76-9.27-42.71-17.73C799.61,442.08,783.89,435.88,767.78,429.08L767.78,429.08z M773.67,399.43l2.45-12.35
			c48.94,25.13,76.83,47.63,76.83,47.63s14.15,16.68,3.67,15.11C847.15,448.45,805.61,419.65,773.67,399.43L773.67,399.43z
			 M788.89,322.84l1.87-9.39c42.11,12.99,82.15,31.21,66.15,41.91c-3.05,2.47-25.21-15.28-48.05-24.44
			C802.24,328.06,795.51,325.7,788.89,322.84L788.89,322.84z M792.32,305.54l1.37-6.92c42.01,10.92,102.11,34.16,84.34,48.61
			c-2.96,1.98-21.66-15.09-41.03-23.56C821.39,316.97,806.16,310.86,792.32,305.54z M756.97,318.04
			c-74.52-15.32-112.85-11.12-112.85-11.12s36.76,1.14,86.58,19.26c21.55,7.88,39.35,16.55,52.79,23.84l4.71-23.72
			C779.11,322.95,768.83,320.4,756.97,318.04L756.97,318.04z M782.51,354.96l-4.32,21.74c-1.88-0.88-4.15-2.36-6.03-3.25
			c-55.07-30.46-139.97-50.41-139.97-50.41s40.8-3.7,80.83,6.81C735.05,335.25,762.63,346.38,782.51,354.96L782.51,354.96z
			 M793.7,298.62l-1.37,6.92c-12.85-5.12-24.22-9.95-32.23-13.6C766.22,292.14,778.67,294.1,793.7,298.62L793.7,298.62z
			 M790.75,313.45l-1.87,9.39c-28.66-10.83-55.16-19.69-70.68-26.89C729.37,296.63,760.31,303.8,790.75,313.45L790.75,313.45z
			 M776.12,387.08c-3.66-2.27-7.41-4.04-11.17-5.82c-55.66-27.49-102.21-36.23-102.21-36.23s68.71,29.06,100.35,48.19
			c3.66,2.27,6.93,3.95,10.58,6.21L776.12,387.08L776.12,387.08z M770.33,416.23l-2.55,12.85c-45.18-18.22-93.62-38.12-107.75-41.96
			c0,0,67.5,14.44,90.63,22.12C755.5,410.72,762.23,413.08,770.33,416.23L770.33,416.23z M765.82,438.96l-2.65,13.34
			c-35.88-13.3-72.06-27.67-82.84-30.33c0,0,56.24,9.12,75.8,14.04C758.6,436.51,761.96,437.69,765.82,438.96L765.82,438.96z
			 M761,463.18c-4.85-1.48-8.7-2.75-11.66-3.34c-19.57-4.91-75.12-25.2-75.12-25.2c11.26,2.75,44.4,27.31,75.44,39.13
			c2.86,1.08,5.73,2.17,8.6,3.25L761,463.18z"/>
		<path class="st15" d="M929.46,303c25.52,16.37,42.63,31.07,32.55,35.24c-5.53,1.98-19.87-6-36.09-17.44L929.46,303L929.46,303z
			 M995.02,340.17c-1.1-12.54-44.02-42.14-62.42-52.98l-1.47,7.41c9.1,5.91,18.1,12.33,24.14,18.15
			c17.61,17.37,32.66,39.88,39.26,29.89l0,0L995.02,340.17z M860.96,275.51c-34.7-14.08,9.18-7.42,46.07,13.78
			c7.81,4.63,15.62,9.27,22.44,13.71l-3.54,17.79C900.52,303.92,870.84,280.05,860.96,275.51L860.96,275.51z M932.61,287.19
			l-0.39-0.59c-19.88-11.14-38.95-13.39-38.95-13.39s19.58,10.06,37.87,21.39L932.61,287.19z"/>
		<path class="st1" d="M645.44,261.46c-126.73-47.27-277.57,60.42-279.65,138.09C422.3,309.07,534.94,233.34,645.44,261.46z"/>
		<path class="st10" d="M897.94,614.18c29.8-28.5,61.71-39.11,95.88-45.67c0,0-23.82-9.36-54.14,1.05
			C908.77,580.37,897.94,614.18,897.94,614.18z"/>
		<path class="st10" d="M761.34,727.79c-40.32-9.04-67.13-29.26-91.46-54.13c0,0,5.26,25.19,31.18,44.72
			C727.46,738.01,761.34,727.79,761.34,727.79z"/>
		<path class="st10" d="M735.16,737.99c-30.54-6.58-51.01-22.46-69.9-41.11c0,0,3.98,18.77,24.05,34.06
			C708.99,745.64,735.16,737.99,735.16,737.99z"/>
		<path class="st16" d="M358.72,820.38c40.23,14.67,97.29,53.23,141.22,98.43c58.47,59.9,100.45,127.83,111.33,137.7
			c-55.08-113.17-135.94-223.23-267.98-246.38C348.73,813.77,353.77,816.83,358.72,820.38z"/>
		<path class="st1" d="M329.23,790.38c151.11,25.4,271.96,192.72,327.46,319.33c3.17,7.31,5.85,14.52,7.64,21.04
			c-6.12,2.38-12.44,5.74-17.87,9.8c-49.68-140.34-184.8-334.13-338.34-331.76l-3.55-0.2L329.23,790.38z"/>
		<path class="st1" d="M1010.71,713.63c0.2-0.98,0.69-0.89,0.29-1.48l0,0c-0.4-0.59-1.29-1.28-2.18-1.97l0,0
			c-17.61-14.8-48.14-18.81-68.3-20.76c19.39,18.75,43.42,37.39,48.99,63.67L984.3,769c-9.24-41.39-45.44-73.75-81.14-93.17
			c1.48,0.29,27.47,1.35,33,1.93c20.25,1.46,57.61,4.77,80.06,23.62l0,0c6.63,5.42,4.66,12.74,11.88,17.77
			c5.34,4.14,14.64,9.07,23.33,9.26C1038.7,733.07,1013.7,732.21,1010.71,713.63z"/>
		<path class="st1" d="M1019.1,710.17l-10.09-8.69c4.17,15.21-13.19,40.53-29.49,42.43C998.11,756.33,1021.29,717.28,1019.1,710.17z
			"/>
		<path class="st10" d="M879.42,578.14c0,0-56.66,47.3-52.16,86.72c2.89,24.2,10.93,48.4,27.76,72.29
			c23.36,32.38,56.1,58.92,95.63,66.77c18.19,4.12,27.07,0.76,36.55-3.01c4.45-1.69,8.4-3.47,12.84-5.16
			c16.69-6.44,68.05-16.78,82.89-6.13l8.11,5.72c-11.56-1.27-59.99-5.76-90.01,8.31c-13.03,6.14-31.01,11.3-54.14,6.19
			c-35.38-8.06-89.37-38.82-111.37-88.39c-22.59-49.18-26.48-78.72,0.75-109.78C863.42,581.12,879.42,578.14,879.42,578.14z"/>
		<path class="st17" d="M954.21,729.12l-4.15-2.36c0,0,20,33.76,24.86,42.95c4.75,9.68,9.48-3.77,2.75-13.83
			C970.83,746.3,954.21,729.12,954.21,729.12z"/>
	</g>
	<g>
		<path class="st1" d="M568.8,1329.48c-26-5.36-51.9-12.44-76.98-21.04c-117.66-40.31-220.25-113.88-296.67-212.74
			c-17.03-22.03-32.75-45.4-46.72-69.44l74.87-43.51c12.07,20.77,25.64,40.95,40.36,59.98c66.04,85.43,154.64,148.98,256.23,183.79
			c21.64,7.41,43.98,13.52,66.41,18.15L568.8,1329.48z"/>
	</g>
</g>
</svg>
